<?xml version="1.0" encoding="UTF-8"?>
<svg width="800" height="600" viewBox="0 0 800 600" fill="none" xmlns="http://www.w3.org/2000/svg">
  <!-- Background -->
  <rect width="800" height="600" fill="#F5F5F5" fill-opacity="0.1"/>
  
  <!-- Road -->
  <path d="M0 400 L800 400" stroke="#1976d2" stroke-width="8"/>
  <path d="M0 402 L800 402" stroke="#1976d2" stroke-opacity="0.3" stroke-width="4"/>
  
  <!-- Bus -->
  <g transform="translate(300, 300)">
    <!-- Bus body -->
    <rect x="0" y="0" width="200" height="80" rx="10" fill="#1976d2"/>
    <rect x="180" y="20" width="40" height="40" rx="5" fill="#1976d2"/>
    
    <!-- Windows -->
    <rect x="20" y="20" width="30" height="30" rx="5" fill="white" fill-opacity="0.9"/>
    <rect x="60" y="20" width="30" height="30" rx="5" fill="white" fill-opacity="0.9"/>
    <rect x="100" y="20" width="30" height="30" rx="5" fill="white" fill-opacity="0.9"/>
    <rect x="140" y="20" width="30" height="30" rx="5" fill="white" fill-opacity="0.9"/>
    
    <!-- Wheels -->
    <circle cx="50" cy="90" r="20" fill="#333"/>
    <circle cx="150" cy="90" r="20" fill="#333"/>
    <circle cx="50" cy="90" r="10" fill="#666"/>
    <circle cx="150" cy="90" r="10" fill="#666"/>
  </g>
  
  <!-- Route markers -->
  <circle cx="100" cy="400" r="10" fill="#1976d2"/>
  <circle cx="300" cy="400" r="10" fill="#1976d2"/>
  <circle cx="500" cy="400" r="10" fill="#1976d2"/>
  <circle cx="700" cy="400" r="10" fill="#1976d2"/>
  
  <!-- Route lines -->
  <path d="M100 390 L300 390" stroke="#1976d2" stroke-width="2" stroke-dasharray="5,5"/>
  <path d="M300 390 L500 390" stroke="#1976d2" stroke-width="2" stroke-dasharray="5,5"/>
  <path d="M500 390 L700 390" stroke="#1976d2" stroke-width="2" stroke-dasharray="5,5"/>
  
  <!-- Location pins -->
  <g transform="translate(100, 380) scale(0.5)">
    <path d="M0 0 L10 -20 L20 0 Z" fill="#1976d2"/>
    <circle cx="10" cy="-25" r="8" fill="#1976d2"/>
  </g>
  <g transform="translate(500, 380) scale(0.5)">
    <path d="M0 0 L10 -20 L20 0 Z" fill="#1976d2"/>
    <circle cx="10" cy="-25" r="8" fill="#1976d2"/>
  </g>
  <g transform="translate(700, 380) scale(0.5)">
    <path d="M0 0 L10 -20 L20 0 Z" fill="#1976d2"/>
    <circle cx="10" cy="-25" r="8" fill="#1976d2"/>
  </g>
</svg> 